<svg width="256" height="293" viewBox="0 0 256 293" fill="none" xmlns="http://www.w3.org/2000/svg">
<path d="M210.58 23H44.42C30.408 23 19 34.408 19 48.544V216.192C19 230.328 30.408 241.736 44.42 241.736H185.036L178.464 218.796L194.336 233.552L209.34 247.44L236 271V48.544C236 34.408 224.592 23 210.58 23ZM162.716 184.944C162.716 184.944 158.252 179.612 154.532 174.9C170.776 170.312 176.976 160.144 176.976 160.144C171.892 163.492 167.056 165.848 162.716 167.46C156.516 170.064 150.564 171.8 144.736 172.792C132.832 175.024 121.92 174.404 112.62 172.668C105.552 171.304 99.476 169.32 94.392 167.336C91.54 166.22 88.44 164.856 85.34 163.12C84.968 162.872 84.596 162.748 84.224 162.5C83.976 162.376 83.852 162.252 83.728 162.128C81.496 160.888 80.256 160.02 80.256 160.02C80.256 160.02 86.208 169.94 101.956 174.652C98.236 179.364 93.648 184.944 93.648 184.944C66.244 184.076 55.828 166.096 55.828 166.096C55.828 126.168 73.684 93.804 73.684 93.804C91.54 80.412 108.528 80.784 108.528 80.784L109.768 82.272C87.448 88.72 77.156 98.516 77.156 98.516C77.156 98.516 79.884 97.028 84.472 94.92C97.74 89.092 108.28 87.48 112.62 87.108C113.364 86.984 113.984 86.86 114.728 86.86C122.292 85.868 130.848 85.62 139.776 86.612C151.556 87.976 164.204 91.448 177.1 98.516C177.1 98.516 167.304 89.216 146.224 82.768L147.96 80.784C147.96 80.784 164.948 80.412 182.804 93.804C182.804 93.804 200.66 126.168 200.66 166.096C200.66 166.096 190.12 184.076 162.716 184.944ZM105.056 127.036C97.988 127.036 92.408 133.236 92.408 140.8C92.408 148.364 98.112 154.564 105.056 154.564C112.124 154.564 117.704 148.364 117.704 140.8C117.828 133.236 112.124 127.036 105.056 127.036ZM150.316 127.036C143.248 127.036 137.668 133.236 137.668 140.8C137.668 148.364 143.372 154.564 150.316 154.564C157.384 154.564 162.964 148.364 162.964 140.8C162.964 133.236 157.384 127.036 150.316 127.036Z" fill="white"/>
</svg>
