<?xml version="1.0" encoding="UTF-8" standalone="no"?>
<svg
   xmlns:dc="http://purl.org/dc/elements/1.1/"
   xmlns:cc="http://creativecommons.org/ns#"
   xmlns:rdf="http://www.w3.org/1999/02/22-rdf-syntax-ns#"
   xmlns:svg="http://www.w3.org/2000/svg"
   xmlns="http://www.w3.org/2000/svg"
   viewBox="0 0 170.66667 170.66667"
   height="170.66667"
   width="170.66667"
   xml:space="preserve"
   id="svg2"
   version="1.1"><metadata
     id="metadata8"><rdf:RDF><cc:Work
         rdf:about=""><dc:format>image/svg+xml</dc:format><dc:type
           rdf:resource="http://purl.org/dc/dcmitype/StillImage" /></cc:Work></rdf:RDF></metadata><defs
     id="defs6" /><g
     transform="matrix(1.3333333,0,0,-1.3333333,0,170.66667)"
     id="g10"><g
       transform="scale(0.1)"
       id="g12"><path
         id="path14"
         style="fill:#FFFFFF;fill-opacity:1;fill-rule:nonzero;stroke:none"
         d="m 1208.75,640 c 0,68.73 -55.71,124.441 -124.44,124.441 -33.55,0 -63.94,-13.332 -86.314,-34.914 C 912.93,790.906 795.73,830.551 665.195,835.105 l 56.692,266.715 185.203,-39.38 c 2.258,-47.08 40.82,-84.663 88.469,-84.663 49.091,0 88.881,39.793 88.881,88.883 0,49.1 -39.79,88.9 -88.881,88.9 -34.922,0 -64.836,-20.33 -79.368,-49.62 l -206.804,43.96 c -5.754,1.25 -11.782,0.12 -16.719,-3.09 -4.953,-3.22 -8.41,-8.26 -9.641,-14.02 l -63.3,-297.599 C 487.27,831.516 368.191,791.816 282.035,729.75 259.68,751.195 229.398,764.441 195.973,764.441 127.246,764.441 71.5273,708.73 71.5273,640 c 0,-50.566 30.2107,-94.004 73.5277,-113.469 -1.918,-12.371 -2.969,-24.922 -2.969,-37.644 0,-191.453 222.859,-346.657 497.777,-346.657 274.91,0 497.777,155.204 497.777,346.657 0,12.636 -1.03,25.105 -2.92,37.39 43.58,19.36 74.03,62.953 74.03,113.723" /></g></g></svg>