<svg width="235" height="166" viewBox="0 0 235 166" fill="none" xmlns="http://www.w3.org/2000/svg">
<path d="M96.1613 112.967V53.0325L148.839 83.0014L96.1613 112.967ZM213.336 34.1738C211.019 25.4454 204.189 18.5721 195.518 16.2394C179.8 12 116.774 12 116.774 12C116.774 12 53.7483 12 38.0305 16.2394C29.359 18.5721 22.5292 25.4454 20.2116 34.1738C16 49.9934 16 83 16 83C16 83 16 116.006 20.2116 131.826C22.5292 140.555 29.359 147.428 38.0305 149.762C53.7483 154 116.774 154 116.774 154C116.774 154 179.8 154 195.518 149.762C204.189 147.428 211.019 140.555 213.336 131.826C217.548 116.006 217.548 83 217.548 83C217.548 83 217.548 49.9934 213.336 34.1738Z" fill="white"/>
</svg>
