<svg width="70" height="70" viewBox="0 0 70 70" fill="none" xmlns="http://www.w3.org/2000/svg">
<path d="M11.3106 32.5976C11.3106 32.5976 35.1935 22.7192 43.4766 19.2409C46.6518 17.8495 57.4198 13.3973 57.4198 13.3973C57.4198 13.3973 62.3896 11.4494 61.9755 16.1799C61.8374 18.1278 60.733 24.9453 59.6286 32.3194C57.972 42.7543 56.1773 54.1633 56.1773 54.1633C56.1773 54.1633 55.9012 57.3633 53.5543 57.9199C51.2075 58.4764 47.342 55.972 46.6518 55.4155C46.0996 54.9981 36.2979 48.7371 32.7086 45.6761C31.7422 44.8413 30.6378 43.1717 32.8466 41.2239C37.8165 36.6325 43.7527 30.928 47.342 27.3106C48.9987 25.641 50.6553 21.7453 43.7527 26.4758C33.951 33.2933 24.2874 39.6934 24.2874 39.6934C24.2874 39.6934 22.0786 41.0848 17.9371 39.8326C13.7955 38.5804 8.96373 36.9108 8.96373 36.9108C8.96373 36.9108 5.65049 34.8238 11.3106 32.5976Z" fill="white"/>
</svg>
