<svg width="400" height="400" viewBox="0 0 400 400" fill="none" xmlns="http://www.w3.org/2000/svg">
<path d="M144.125 322.031C257.407 322.031 319.349 227.739 319.349 146.019C319.349 143.325 319.349 140.631 319.221 138.065C331.226 129.342 341.699 118.437 350 105.993C339.017 110.868 327.139 114.204 314.623 115.743C327.395 108.046 337.101 95.9867 341.699 81.4901C329.821 88.546 316.667 93.6775 302.618 96.4998C291.379 84.4407 275.415 77 257.663 77C223.691 77 196.105 104.71 196.105 138.835C196.105 143.71 196.616 148.457 197.765 152.947C146.552 150.381 101.213 125.75 70.8174 88.2894C65.5811 97.3979 62.516 108.046 62.516 119.335C62.516 140.759 73.3717 159.746 89.9745 170.779C79.8851 170.522 70.4342 167.7 62.1328 163.082C62.1328 163.338 62.1328 163.595 62.1328 163.851C62.1328 193.871 83.3333 218.759 111.558 224.532C106.45 225.943 100.958 226.713 95.3384 226.713C91.3793 226.713 87.5479 226.328 83.7165 225.558C91.507 250.189 114.24 268.022 141.188 268.535C120.115 285.084 93.5504 294.962 64.6871 294.962C59.7063 294.962 54.8531 294.706 50 294.064C76.9476 311.768 109.387 322.031 144.125 322.031Z" fill="white"/>
</svg>
