<svg width="168" height="168" viewBox="0 0 168 168" fill="none" xmlns="http://www.w3.org/2000/svg">
<path d="M83.9996 12C44.2362 12 12 44.2361 12 84.0004C12 123.767 44.2362 156 83.9996 156C123.767 156 156 123.767 156 84.0004C156 44.2386 123.767 12.0034 83.9987 12.0034L83.9996 12V12ZM117.018 115.845C115.728 117.96 112.96 118.631 110.845 117.333C93.9402 107.007 72.6592 104.668 47.597 110.394C45.1819 110.944 42.7745 109.431 42.2243 107.015C41.6715 104.599 43.1786 102.192 45.5997 101.642C73.0263 95.3729 96.5522 98.0735 115.531 109.672C117.646 110.97 118.316 113.73 117.018 115.845V115.845ZM125.831 96.2378C124.206 98.8817 120.75 99.7156 118.11 98.0906C98.7566 86.192 69.2554 82.7469 46.3641 89.6957C43.3953 90.5924 40.2597 88.9193 39.3587 85.9556C38.4645 82.9867 40.1385 79.8571 43.1021 78.9543C69.2502 71.0202 101.757 74.8635 123.982 88.5212C126.622 90.1462 127.456 93.6026 125.831 96.2387V96.2378ZM126.587 75.823C103.382 62.0397 65.0967 60.7724 42.9413 67.4968C39.3836 68.5758 35.6213 66.5674 34.5431 63.0095C33.465 59.45 35.4717 55.6902 39.032 54.6086C64.4648 46.8876 106.744 48.3794 133.46 64.2399C136.667 66.1392 137.716 70.2722 135.816 73.468C133.925 76.6682 129.78 77.7231 126.591 75.823H126.587Z" fill="white"/>
</svg>
